<svg preserveAspectRatio="none" width="100%" height="100%" overflow="visible" style="display: block;" viewBox="0 0 1280 832" fill="none" xmlns="http://www.w3.org/2000/svg">
<g id="SVG" opacity="0.35" clip-path="url(#clip0_0_4)">
<path id="Vector" d="M-172.181 759.179C-144.65 661.273 -62.3245 593.888 18.3976 602.977C75.8652 609.492 130.928 650.299 188.128 640.184C257.758 628.01 303.731 548.965 350.507 490.154C409.177 416.425 466.513 385.561 548.704 417.11C609.646 440.429 659.897 494.097 725.517 494.269C846.2 494.612 905.271 332.58 943.895 210.327C982.786 87.2169 1021.28 -43.0948 1119.77 -106.193C1200.49 -157.975 1281.09 -152.488 1365.01 -119.567C1405.37 -103.793 1444.94 -93.1619 1478.35 -56.2975" stroke="var(--stroke-0, #008080)" stroke-width="1.42913" stroke-miterlimit="10"/>
<path id="Vector_2" d="M1482.09 -50.4679C1447.88 -86.8179 1407.65 -97.963 1366.75 -113.738C1336.68 -125.397 1307.01 -133.456 1277.61 -136.885C1223.75 -143.229 1170.69 -133.284 1117.9 -99.3347C1101.6 -88.7041 1086.76 -76.3588 1073.4 -62.4703C1005.37 8.51529 973.832 118.423 940.286 222.329C900.326 346.297 837.246 506.442 715.361 504.557C649.607 503.699 599.089 450.718 538.414 426.37C484.287 404.937 440.852 409.738 400.491 435.457C380.044 448.488 360.531 467.006 340.617 489.982C293.307 544.85 246.397 619.094 176.901 630.239C159.661 632.982 142.689 631.439 125.715 627.839C86.1562 619.265 47.1316 599.375 7.03791 596.118C-73.5505 589.259 -154.941 657.673 -182.071 755.92" stroke="var(--stroke-0, #008080)" stroke-width="1.42913" stroke-miterlimit="10"/>
<path id="Vector_3" d="M1485.56 -44.8092C1450.55 -80.645 1409.79 -92.3044 1368.22 -108.079C1337.75 -119.738 1307.55 -127.969 1277.74 -131.226C1223.08 -137.399 1168.95 -127.283 1115.9 -92.8188C1099.32 -82.0167 1084.49 -69.4998 1070.99 -55.097C1002.3 17.4318 971.292 129.225 936.811 234.332C895.515 360.185 828.291 518.103 705.204 514.673C639.584 513.131 588.664 460.663 528.122 435.629C474.531 413.682 431.096 416.597 390.735 439.916C370.288 451.574 350.641 468.721 330.594 489.982C282.882 540.907 235.037 610.35 165.541 620.637C148.301 623.209 131.195 621.665 114.221 618.065C74.5286 610.007 35.3705 591.488 -4.58967 589.259C-85.0445 584.973 -165.499 654.244 -192.229 752.835" stroke="var(--stroke-0, #008080)" stroke-width="1.42913" stroke-miterlimit="10"/>
<path id="Vector_4" d="M1489.04 -39.1514C1453.22 -74.4726 1411.93 -86.4751 1369.69 -102.421C1338.81 -114.08 1308.21 -122.311 1277.87 -125.569C1222.41 -131.741 1167.35 -121.282 1113.76 -86.1321C1097.05 -75.1585 1081.95 -62.2988 1068.32 -47.7244C998.958 26.3471 968.486 140.198 933.07 246.163C890.302 373.902 819.204 529.248 694.912 524.789C629.292 522.559 578.106 470.606 517.699 444.716C464.641 422.084 421.34 423.627 380.979 444.373C360.531 454.833 340.751 470.435 320.705 489.982C272.459 536.963 223.811 601.433 154.181 610.863C136.941 613.092 119.835 611.55 102.728 608.292C62.9017 600.576 23.6099 583.601 -16.2166 582.573C-96.2704 580.514 -175.79 650.814 -202.251 749.748" stroke="var(--stroke-0, #008080)" stroke-width="1.42913" stroke-miterlimit="10"/>
<path id="Vector_5" d="M1492.51 -33.6644C1455.89 -68.4713 1413.93 -80.9881 1371.3 -96.934C1340.03 -108.593 1309.01 -116.824 1278.14 -120.082C1221.88 -126.083 1165.88 -115.281 1111.89 -79.7879C1095.05 -68.6428 1079.68 -55.6117 1065.91 -40.6945C995.75 34.7489 965.948 150.658 929.595 257.823C885.493 387.276 810.382 540.393 684.89 534.735C619.27 531.648 567.682 480.38 507.541 453.804C454.885 430.485 411.717 430.485 371.356 448.659C350.909 457.919 331.129 471.978 310.815 489.81C262.034 532.676 212.585 592.518 142.956 600.918C125.715 602.976 108.475 601.433 91.3686 598.346C51.4085 591.146 11.9829 575.542 -27.7099 575.714C-107.496 575.886 -186.214 647.214 -212.141 746.49" stroke="var(--stroke-0, #008080)" stroke-width="1.42913" stroke-miterlimit="10"/>
<path id="Vector_6" d="M1496.12 -28.006C1458.7 -62.2985 1416.2 -75.3296 1372.9 -91.1042C1341.22 -102.764 1309.69 -110.994 1278.41 -114.252C1221.34 -120.253 1164.28 -109.108 1109.88 -73.1008C1092.78 -61.7841 1077.41 -48.4101 1063.37 -33.1499C992.542 43.8375 963.274 161.632 925.986 269.825C880.414 401.165 801.429 552.052 674.599 544.85C608.979 541.25 557.124 490.497 497.117 463.063C444.995 439.229 401.961 437.516 361.466 453.118C340.885 461.005 321.105 473.693 300.657 489.81C251.476 528.733 201.091 583.773 131.462 591.146C114.222 593.031 96.9812 591.488 79.8746 588.573C39.7808 581.714 0.355289 567.484 -39.4712 568.856C-119.124 571.427 -196.773 643.784 -222.433 743.405" stroke="var(--stroke-0, #008080)" stroke-width="1.42913" stroke-miterlimit="10"/>
<path id="Vector_7" d="M1499.6 -22.3478C1461.37 -56.126 1418.34 -69.5002 1374.36 -85.4461C1342.29 -97.1055 1310.35 -105.336 1278.55 -108.594C1220.67 -114.423 1162.67 -103.107 1107.74 -66.5852C1090.5 -55.0971 1074.87 -41.5516 1060.7 -25.9486C989.067 52.5811 960.467 172.434 922.111 281.483C875.201 414.71 792.074 563.369 664.175 554.795C598.554 550.509 546.432 500.271 486.559 471.978C434.971 447.631 391.937 444.202 351.576 457.233C330.995 463.92 311.082 475.065 290.501 489.469C240.651 524.446 189.597 574.684 119.969 581.201C102.595 582.744 85.488 581.201 68.2476 578.458C28.0202 572.112 -11.5389 559.254 -51.2318 561.825C-130.618 566.797 -207.33 640.012 -232.589 739.975" stroke="var(--stroke-0, #008080)" stroke-width="1.42913" stroke-miterlimit="10"/>
<path id="Vector_8" d="M1503.07 -16.6894C1464.05 -49.953 1420.34 -63.8415 1375.98 -79.7876C1343.5 -91.4471 1311.15 -99.6773 1278.81 -102.935C1220.14 -108.765 1161.2 -97.1052 1105.87 -59.8979C1088.5 -48.2385 1072.6 -34.35 1058.3 -18.5754C985.994 61.4979 957.929 183.236 918.636 293.487C870.256 428.427 783.252 574.857 654.017 565.084C588.531 560.11 536.009 510.559 476.269 481.41C425.083 456.548 382.315 451.404 341.821 461.863C321.24 467.178 301.192 476.952 280.477 489.64C230.092 520.674 178.239 565.941 108.609 571.599C91.235 572.971 73.9946 571.427 56.7544 568.856C16.3932 562.854 -23.2995 551.539 -62.8588 555.31C-141.978 562.512 -217.888 636.754 -242.746 737.06" stroke="var(--stroke-0, #008080)" stroke-width="1.42913" stroke-miterlimit="10"/>
<path id="Vector_9" d="M1506.55 -11.2027C1466.71 -43.7805 1422.47 -58.3549 1377.44 -74.301C1344.56 -85.9604 1311.69 -94.1906 1278.95 -97.4484C1219.34 -103.107 1159.47 -91.1042 1103.73 -53.5539C1086.09 -41.723 1070.19 -27.6631 1055.62 -11.3741C982.519 70.0698 955.121 193.866 914.894 305.146C865.177 441.972 774.165 586.173 643.726 574.856C578.24 569.199 525.45 520.159 465.844 490.325C415.192 464.778 372.425 458.091 332.065 465.978C311.349 470.093 291.302 478.323 270.587 489.297C219.669 516.216 167.011 556.854 97.3824 561.482C80.0084 562.682 62.768 561.139 45.3941 558.739C4.89936 553.252 -34.927 543.307 -74.3525 548.108C-153.204 557.71 -228.179 632.811 -252.636 733.631" stroke="var(--stroke-0, #008080)" stroke-width="1.42913" stroke-miterlimit="10"/>
<path id="Vector_10" d="M1510.02 -5.54441C1469.39 -37.608 1424.62 -52.5252 1378.91 -68.6426C1345.64 -80.3021 1312.36 -88.5323 1279.07 -91.6187C1218.67 -97.277 1157.86 -84.9317 1101.6 -46.8669C1083.82 -34.8646 1067.65 -20.4616 1053.08 -4.00121C979.311 78.9867 952.449 204.668 911.286 317.148C860.099 455.861 765.211 597.833 633.57 585.144C568.084 578.801 514.893 530.448 455.554 499.584C405.436 473.522 362.67 464.95 322.309 470.436C301.594 473.18 281.413 480.038 260.564 489.297C208.976 512.273 155.652 548.108 86.0227 551.88C68.6487 552.739 51.2747 551.367 33.9009 549.137C-6.72753 543.993 -46.6876 535.591 -85.9795 541.593C-164.698 553.595 -238.603 629.724 -262.659 730.716" stroke="var(--stroke-0, #008080)" stroke-width="1.42913" stroke-miterlimit="10"/>
<path id="Vector_11" d="M1513.63 0.113432C1472.2 -31.4357 1426.76 -46.8673 1380.51 -62.8133C1346.84 -74.4728 1313.16 -82.8745 1279.48 -85.7894C1218.27 -91.2762 1156.53 -78.7594 1099.86 -40.0088C1081.95 -27.8349 1065.51 -13.2606 1050.81 3.54268C976.238 88.0736 950.043 215.813 907.944 329.15C855.421 469.578 756.524 609.492 623.546 595.431C558.06 588.401 504.601 540.563 445.396 509.014C395.68 482.438 353.18 472.15 312.819 475.065C292.104 476.608 271.79 481.923 250.808 489.467C198.686 508.329 144.559 539.535 74.9298 542.278C57.5558 542.963 40.1819 541.422 22.8079 539.363C-17.9541 534.733 -57.9143 527.533 -97.2061 534.905C-175.656 549.137 -248.76 626.295 -272.416 727.63" stroke="var(--stroke-0, #008080)" stroke-width="1.42913" stroke-miterlimit="10"/>
<path id="Vector_12" d="M1517.1 5.77157C1474.87 -25.2632 1428.9 -41.2091 1382.12 -57.1552C1347.91 -68.8146 1313.82 -77.2163 1279.75 -80.1312C1217.73 -85.618 1154.92 -72.5869 1097.85 -33.4934C1079.68 -20.9766 1063.24 -6.23073 1048.27 10.9155C973.03 96.9905 947.37 226.615 904.336 341.153C850.21 483.123 747.302 620.98 613.121 605.377C547.635 597.831 493.91 550.509 434.839 517.931C385.656 490.839 343.157 478.837 302.796 479.18C281.947 479.352 261.634 483.295 240.517 489.125C187.727 503.871 132.932 530.276 63.3027 532.161C45.9288 532.505 28.4212 531.133 11.0472 529.246C-29.8484 524.961 -69.9422 519.303 -109.1 527.705C-187.284 544.335 -259.453 622.352 -282.706 724.2" stroke="var(--stroke-0, #008080)" stroke-width="1.42913" stroke-miterlimit="10"/>
<path id="Vector_13" d="M1520.58 11.2588C1477.54 -19.2614 1431.04 -35.5505 1383.59 -51.6679C1348.98 -63.3273 1314.5 -71.7291 1279.88 -74.644C1217.07 -79.9593 1153.32 -66.7566 1095.72 -27.1488C1077.41 -14.4605 1060.7 0.456746 1045.6 17.9452C969.689 105.392 944.564 237.076 900.46 352.64C845.131 496.669 738.215 632.467 602.831 615.322C537.479 607.092 483.353 560.454 424.414 527.018C375.768 499.412 333.401 485.695 292.906 483.467C272.058 482.267 251.476 484.667 230.36 488.954C176.903 499.584 121.439 521.359 51.8094 522.218C34.4355 522.389 16.9279 521.018 -0.579753 519.303C-41.609 515.531 -81.8364 511.244 -120.861 520.846C-198.776 539.878 -270.01 618.922 -292.996 720.943" stroke="var(--stroke-0, #008080)" stroke-width="1.42913" stroke-miterlimit="10"/>
<path id="Vector_14" d="M1524.05 16.9168C1480.21 -13.0889 1433.04 -29.8922 1385.06 -46.0097C1350.05 -57.6692 1315.16 -66.0709 1280.01 -68.9858C1216.4 -74.3011 1151.71 -60.7556 1093.71 -20.4618C1075.27 -7.60211 1058.3 7.6581 1043.06 25.3187C966.348 114.308 941.89 248.049 896.851 364.644C840.186 510.558 729.26 644.127 592.674 625.609C527.321 616.693 472.794 570.741 414.123 536.448C365.876 508.329 323.645 492.897 283.284 488.097C262.435 485.695 241.72 486.554 220.604 489.125C166.478 495.64 110.346 512.788 40.7165 512.788C23.2089 512.788 5.83493 511.244 -11.8063 509.872C-52.9692 506.442 -93.3303 503.699 -132.221 514.501C-210.003 535.763 -280.301 615.835 -302.754 718.199" stroke="var(--stroke-0, #008080)" stroke-width="1.42913" stroke-miterlimit="10"/>
<path id="Vector_15" d="M1527.53 22.5753C1482.89 -6.9161 1435.17 -24.2339 1386.52 -40.3513C1351.11 -52.1822 1315.7 -60.4124 1280.15 -63.3273C1215.73 -68.6426 1149.98 -54.7541 1091.57 -13.946C1073 -0.914797 1055.76 14.5168 1040.39 32.5205C963.006 123.053 939.084 258.68 893.11 376.302C834.974 524.104 720.173 655.444 582.384 635.554C517.03 626.124 462.236 580.514 403.699 545.365C355.988 516.731 313.755 499.414 273.394 492.212C252.545 488.44 231.696 487.754 210.447 488.782C155.652 491.184 98.8526 503.699 29.2231 502.671C11.7155 502.327 -5.79213 500.956 -23.4334 499.584C-64.7299 496.499 -105.225 495.299 -143.981 507.129C-221.496 530.791 -290.859 611.722 -313.044 714.599" stroke="var(--stroke-0, #008080)" stroke-width="1.42913" stroke-miterlimit="10"/>
<path id="Vector_16" d="M1531.14 28.2338C1485.7 -0.572422 1437.31 -18.4045 1388.26 -34.5219C1352.45 -46.3529 1316.64 -54.5831 1280.55 -57.498C1215.33 -62.642 1148.64 -48.4105 1089.7 -7.25944C1070.86 5.94306 1053.62 21.717 1037.98 40.0641C959.799 132.14 936.545 269.653 889.635 388.304C830.162 537.82 711.351 667.103 572.36 645.671C507.006 635.554 451.945 590.631 393.541 554.624C346.231 525.475 304.266 506.442 263.905 496.669C242.922 491.697 222.074 489.467 200.69 488.782C145.227 486.895 87.7595 494.954 17.9964 492.897C0.488846 492.382 -17.0187 491.01 -34.66 489.81C-76.0902 487.239 -116.585 487.239 -155.343 500.441C-232.589 526.503 -301.016 608.292 -322.8 711.513" stroke="var(--stroke-0, #008080)" stroke-width="1.42913" stroke-miterlimit="10"/>
<path id="Vector_17" d="M1534.61 33.8922C1488.36 5.60088 1439.45 -12.7456 1389.74 -28.8632C1353.52 -40.6941 1317.3 -48.9243 1280.69 -51.8392C1214.66 -56.983 1147.04 -42.4087 1087.7 -0.743292C1068.72 12.6307 1051.21 28.5771 1035.58 47.2659C956.725 140.713 934.005 280.455 886.16 400.136C825.217 551.539 702.397 678.763 562.202 655.788C496.85 645.156 441.52 600.748 383.251 563.712C336.475 534.048 294.51 513.301 254.149 500.956C233.166 494.612 212.184 490.84 190.667 488.61C134.536 482.438 76.3999 485.867 6.63683 482.953C-10.8708 482.267 -28.5121 480.723 -46.1533 479.867C-87.7172 477.637 -128.345 479.18 -166.969 493.584C-244.083 521.874 -311.574 604.863 -332.958 708.254" stroke="var(--stroke-0, #008080)" stroke-width="1.42913" stroke-miterlimit="10"/>
<path id="Vector_18" d="M1538.09 39.379C1491.04 11.6015 1441.59 -7.25942 1391.21 -23.3768C1354.59 -35.2078 1317.84 -43.438 1280.81 -46.3529C1213.99 -51.3254 1145.3 -36.5795 1085.56 5.77173C1066.45 19.3169 1048.67 35.6057 1032.9 54.4678C953.25 149.457 931.199 291.085 882.285 411.795C820.006 565.082 693.176 690.25 551.645 665.731C486.425 654.414 430.561 610.692 372.559 572.799C326.184 542.622 284.354 519.988 243.993 505.242C223.01 497.527 201.76 492.382 180.376 488.439C123.711 477.98 64.773 476.952 -4.99006 473.178C-22.4976 472.15 -40.1389 470.778 -57.9139 470.093C-99.6114 468.378 -140.374 471.293 -178.864 486.724C-255.71 517.416 -322.265 601.261 -343.247 705.167" stroke="var(--stroke-0, #008080)" stroke-width="1.42913" stroke-miterlimit="10"/>
<path id="Vector_19" d="M1541.56 45.0375C1493.71 17.7752 1443.6 -1.4293 1392.68 -17.7182C1355.66 -29.5492 1318.5 -37.9509 1281.09 -40.5228C1213.46 -45.4952 1143.83 -30.235 1083.69 12.4592C1064.31 26.1754 1046.53 42.6358 1030.5 62.0113C950.176 158.545 928.66 302.059 878.81 423.969C815.06 578.973 684.355 702.082 541.621 676.02C476.401 664.188 420.271 620.98 362.402 582.229C316.561 551.537 274.864 527.19 234.502 509.872C213.386 500.956 192.138 494.097 170.62 488.61C113.286 473.865 53.6801 468.378 -16.083 463.578C-33.5906 462.376 -51.3655 461.005 -69.1404 460.491C-110.972 459.12 -151.868 463.578 -190.224 480.208C-266.803 513.301 -332.423 598.005 -353.138 702.254" stroke="var(--stroke-0, #008080)" stroke-width="1.42913" stroke-miterlimit="10"/>
<path id="Vector_20" d="M1545.16 50.6944C1496.52 23.947 1445.88 4.22868 1394.41 -12.0604C1357 -23.8912 1319.44 -32.2929 1281.49 -34.8648C1212.92 -39.6657 1142.36 -24.2342 1081.82 18.9752C1062.3 32.8623 1044.26 49.666 1028.09 69.2131C946.969 167.289 926.12 312.861 875.335 435.629C810.116 592.516 675.267 713.569 531.464 685.964C466.245 673.447 409.713 630.924 352.111 591.145C306.805 559.939 265.108 533.705 224.748 513.988C203.631 503.699 182.248 495.297 160.598 488.267C102.595 469.235 42.3204 459.291 -27.4427 453.461C-45.084 451.918 -62.7252 450.718 -80.6337 450.203C-122.598 449.346 -163.627 455.176 -201.85 473.008C-278.162 508.501 -342.846 594.231 -363.161 698.824" stroke="var(--stroke-0, #008080)" stroke-width="1.42913" stroke-miterlimit="10"/>
<path id="Vector_21" d="M1548.64 56.3545C1499.19 30.1205 1448.01 9.88732 1395.89 -6.40159C1358.06 -18.2325 1319.98 -26.6343 1281.61 -29.2062C1212.26 -34.0071 1140.75 -18.2326 1079.68 25.662C1060.03 39.7224 1041.72 56.6962 1025.42 76.5866C943.627 176.034 923.314 323.665 871.592 447.631C805.036 606.407 666.313 725.401 521.173 696.252C455.954 683.222 399.155 641.041 341.82 600.576C296.915 568.856 255.485 540.907 215.124 518.788C194.007 507.129 172.491 497.184 150.706 488.61C92.17 465.121 31.0939 450.718 -38.6693 444.203C-56.3105 442.488 -73.9517 441.116 -91.8602 440.944C-133.959 440.431 -174.988 447.631 -213.211 466.663C-289.389 504.386 -353.138 591.146 -373.051 696.081" stroke="var(--stroke-0, #008080)" stroke-width="1.42913" stroke-miterlimit="10"/>
<path id="Vector_22" d="M1552.11 61.8396C1501.86 36.1206 1450.01 15.5451 1397.35 -0.743608C1359.14 -12.5746 1320.64 -20.9763 1281.75 -23.5482C1211.59 -28.1776 1139.15 -12.2316 1077.67 32.1772C1057.76 46.5809 1039.45 63.7263 1022.88 83.9585C940.42 184.951 920.641 334.466 867.984 459.461C800.092 619.95 657.225 736.888 511.016 706.197C445.797 692.48 388.73 650.986 331.53 609.663C287.16 577.428 245.729 547.765 205.369 523.074C184.252 510.214 162.601 498.556 140.684 488.269C81.6122 460.491 19.7341 441.629 -50.029 434.086C-67.6703 432.199 -85.4452 430.827 -103.354 430.827C-145.586 430.827 -186.749 439.401 -224.838 459.633C-300.883 499.584 -363.696 587.201 -383.208 692.48" stroke="var(--stroke-0, #008080)" stroke-width="1.42913" stroke-miterlimit="10"/>
<path id="Vector_23" d="M1555.59 67.4981C1504.54 42.4642 1452.15 21.2036 1398.96 4.91438C1360.34 -6.91642 1321.45 -15.3181 1282.02 -17.89C1211.05 -22.5196 1137.55 -6.05924 1075.67 38.6924C1055.62 53.2661 1037.05 70.5848 1020.34 91.1603C937.08 193.695 917.967 345.268 864.242 471.293C795.014 633.667 648.271 748.548 500.726 716.313C435.64 702.082 378.039 661.101 321.106 618.75C277.136 586.001 235.974 554.452 195.479 527.361C174.229 513.129 152.579 500.099 130.66 488.097C71.0543 455.861 8.37449 432.714 -61.3886 424.14C-79.0299 421.912 -96.8048 420.712 -114.847 420.882C-157.213 421.225 -198.509 431.342 -236.465 452.774C-312.109 495.125 -374.12 583.773 -393.231 689.394" stroke="var(--stroke-0, #008080)" stroke-width="1.42913" stroke-miterlimit="10"/>
<path id="Vector_24" d="M1559.06 73.1566C1507.21 48.6376 1454.29 26.8621 1400.42 10.5727C1361.4 -1.25827 1321.97 -9.65998 1282.15 -12.2319C1210.38 -16.6898 1135.94 -0.0580778 1073.53 45.2076C1053.35 59.9546 1034.51 77.615 1017.8 98.3622C933.871 202.44 915.295 355.899 860.634 482.952C790.069 647.213 639.316 760.207 490.569 726.258C425.482 711.341 367.614 671.047 310.815 627.839C267.246 594.575 226.35 561.139 185.856 531.648C164.606 516.044 142.822 501.471 120.77 487.925C60.6297 451.403 -2.85212 423.797 -72.6153 414.195C-90.2565 411.795 -108.165 410.423 -126.208 410.767C-168.706 411.623 -210.136 423.112 -247.959 445.573C-323.603 490.497 -384.545 580.171 -403.255 686.135" stroke="var(--stroke-0, #008080)" stroke-width="1.42913" stroke-miterlimit="10"/>
<path id="Vector_25" d="M1562.68 78.8151C1510.03 54.8095 1456.43 32.6906 1402.04 16.2302C1362.61 4.40003 1322.77 -4.00167 1282.42 -6.57357C1209.85 -11.0315 1134.47 5.94323 1071.66 51.8944C1051.21 66.8131 1032.37 84.6452 1015.4 105.734C930.664 211.183 912.756 366.701 857.159 494.955C784.99 660.931 630.229 772.209 480.411 736.375C415.326 721.114 357.056 681.335 300.524 636.926C257.49 603.32 216.595 567.997 176.1 535.935C154.85 518.959 133.066 502.842 110.747 487.754C50.0719 446.774 -14.2118 414.71 -83.9749 404.422C-101.616 401.85 -119.525 400.478 -137.7 400.993C-180.334 402.193 -221.897 415.225 -259.719 438.886C-334.961 486.039 -394.969 576.571 -413.411 682.878" stroke="var(--stroke-0, #008080)" stroke-width="1.42913" stroke-miterlimit="10"/>
<path id="Vector_26" d="M1566.15 84.3019C1512.69 60.8113 1458.56 38.1774 1403.5 21.717C1363.68 9.88684 1323.45 1.48513 1282.55 -1.08677C1209.18 -5.37337 1132.74 11.9444 1069.52 58.2395C1048.94 73.3282 1029.83 91.5037 1012.72 112.936C927.322 219.929 909.949 377.503 853.416 506.614C779.911 674.477 621.14 783.526 469.986 746.319C404.901 730.373 346.231 691.279 289.966 646.013C247.332 611.892 206.705 574.856 166.21 540.22C144.96 522.046 123.042 504.214 100.59 487.582C39.3798 442.316 -25.7057 405.793 -95.4688 394.478C-113.11 391.563 -131.153 390.363 -149.195 391.048C-191.961 392.763 -233.525 406.995 -271.346 432.027C-346.323 481.58 -405.528 573.141 -423.436 679.792" stroke="var(--stroke-0, #008080)" stroke-width="1.42913" stroke-miterlimit="10"/>
<path id="Vector_27" d="M1569.62 89.9603C1476.07 50.3526 1381.19 10.4013 1282.82 4.74303C1184.46 -0.915117 1080.48 31.8339 1010.32 120.309C924.115 228.845 907.41 388.305 849.942 518.444C774.966 688.022 612.32 795.015 459.964 756.435C346.097 727.458 251.075 631.096 156.587 544.507C62.0998 457.92 -44.5495 375.446 -160.554 381.104C-288.72 387.619 -406.998 515.701 -433.459 676.533" stroke="var(--stroke-0, #008080)" stroke-width="1.42913" stroke-miterlimit="10"/>
<path id="Vector_28" d="M-426.242 674.477C-400.315 525.475 -294.601 406.652 -176.725 388.134C-168.974 386.933 -161.223 386.076 -153.471 385.904C-42.2776 381.276 60.3625 457.061 152.177 538.506C155.385 541.25 158.459 544.165 161.666 546.908C255.886 631.439 351.043 724.886 463.839 751.292C614.859 786.269 774.031 677.392 850.209 510.729C859.965 489.297 868.786 467.006 876.939 444.374C917.3 332.408 943.226 211.527 1015.26 125.11C1051.21 82.0734 1095.45 52.9244 1143.16 35.2639C1189.27 18.2885 1238.72 12.1162 1286.7 14.8596C1384.53 20.1752 1479.01 57.5545 1571.23 92.7037" stroke="var(--stroke-0, #008080)" stroke-width="1.42913" stroke-miterlimit="10"/>
<path id="Vector_29" d="M-419.159 672.418C-392.163 525.305 -286.449 409.738 -169.509 392.591C-161.891 391.391 -154.139 390.706 -146.388 390.535C-36.13 386.591 65.7081 461.348 157.255 540.907C160.462 543.65 163.537 546.393 166.745 549.137C260.697 631.782 355.854 722.315 467.715 745.977C617.531 777.354 773.229 666.418 850.476 502.842C860.5 481.752 869.32 459.976 877.74 437.857C919.438 328.636 947.637 212.557 1020.21 129.911C1056.42 88.7603 1100.53 60.9829 1147.97 44.3509C1193.81 28.2338 1242.86 22.5753 1290.7 24.9754C1388 29.9488 1481.95 64.7547 1572.84 95.6188" stroke="var(--stroke-0, #008080)" stroke-width="1.42913" stroke-miterlimit="10"/>
<path id="Vector_30" d="M-411.943 670.361C-383.876 525.133 -278.029 412.995 -162.158 397.05C-154.54 396.021 -146.923 395.335 -139.305 395.163C-29.9824 392.078 71.0539 465.635 162.334 543.307C165.541 546.05 168.615 548.622 171.822 551.365C265.642 632.125 360.797 719.743 471.456 740.662C620.071 768.437 772.294 655.444 850.61 494.955C860.767 474.208 869.855 452.946 878.542 431.342C921.576 324.693 952.047 213.413 1025.02 134.54C1061.37 95.2755 1105.47 69.0415 1152.65 53.2677C1198.22 38.179 1247 32.6922 1294.45 34.9206C1391.21 39.5507 1484.76 71.9565 1574.3 98.1905" stroke="var(--stroke-0, #008080)" stroke-width="1.42913" stroke-miterlimit="10"/>
<path id="Vector_31" d="M-404.859 668.303C-375.724 524.961 -269.876 416.082 -154.808 401.336C-147.323 400.306 -139.705 399.793 -132.088 399.621C-23.7005 397.393 76.5339 469.75 167.546 545.707C170.754 548.28 173.827 551.023 176.902 553.595C270.454 632.296 365.61 717.169 475.332 735.345C622.611 759.35 771.359 644.469 851.011 486.895C861.303 466.663 870.658 445.744 879.611 424.827C923.983 320.919 956.725 214.27 1030.1 139.342C1066.72 101.962 1110.68 77.1 1157.46 62.3546C1202.77 48.1226 1251.15 43.1508 1298.32 45.2076C1394.55 49.4943 1487.56 79.3284 1575.77 101.276" stroke="var(--stroke-0, #008080)" stroke-width="1.42913" stroke-miterlimit="10"/>
<path id="Vector_32" d="M-397.641 666.246C-367.438 524.79 -261.59 419.169 -147.456 405.795C-139.973 404.937 -132.489 404.423 -125.004 404.252C-17.5529 402.88 81.8796 474.037 172.625 548.108C175.699 550.68 178.906 553.252 181.98 555.824C275.265 632.639 370.555 714.428 479.209 730.03C625.284 750.434 770.422 633.497 851.279 479.008C861.702 459.12 871.325 438.716 880.548 418.312C926.254 317.148 961.269 215.3 1035.04 143.972C1071.79 108.477 1115.76 84.9885 1162.27 71.2715C1207.31 57.8962 1255.43 53.2677 1302.34 55.1528C1398.03 59.0962 1490.64 86.3602 1577.51 104.021" stroke="var(--stroke-0, #008080)" stroke-width="1.42913" stroke-miterlimit="10"/>
<path id="Vector_33" d="M-390.425 664.188C-359.151 524.618 -253.304 422.425 -140.106 410.252C-132.756 409.395 -125.271 409.052 -117.787 409.052C-11.2716 408.538 87.4925 478.495 177.837 550.852C180.911 553.424 184.119 555.824 187.192 558.395C280.21 633.154 375.632 712.198 483.217 725.058C628.09 741.862 769.755 622.865 851.68 471.465C862.237 451.918 871.994 432.027 881.482 412.138C928.526 313.548 965.814 216.499 1039.99 148.943C1077.01 115.336 1120.71 93.3888 1167.08 80.5301C1211.85 68.0131 1259.7 63.7263 1306.21 65.613C1401.5 69.2131 1493.45 93.9038 1578.97 107.106" stroke="var(--stroke-0, #008080)" stroke-width="1.42913" stroke-miterlimit="10"/>
<path id="Vector_34" d="M-383.341 662.131C-351 524.446 -245.153 425.512 -132.756 414.538C-125.405 413.853 -118.055 413.51 -110.571 413.51C-4.99032 413.853 92.972 482.782 183.049 553.08C186.124 555.482 189.331 557.882 192.405 560.454C285.289 633.326 380.577 709.454 487.227 719.571C630.762 732.601 768.953 611.722 852.08 463.235C862.773 444.031 872.795 424.655 882.551 405.28C930.931 309.432 970.491 217.014 1045.06 153.402C1082.35 121.681 1125.92 101.106 1171.89 89.1036C1216.4 77.4434 1263.84 73.6716 1310.21 75.2149C1404.97 78.3001 1496.39 100.591 1580.71 109.507" stroke="var(--stroke-0, #008080)" stroke-width="1.42913" stroke-miterlimit="10"/>
<path id="Vector_35" d="M-376.125 660.073C-342.714 524.275 -236.733 428.77 -125.405 418.997C-118.055 418.312 -110.838 418.14 -103.487 418.14C1.15727 419.34 98.3178 487.069 188.127 555.482C191.201 557.882 194.409 560.282 197.482 562.682C290.1 633.497 385.522 706.711 490.969 714.256C633.302 723.686 768.017 600.748 852.214 455.348C863.039 436.657 873.33 417.625 883.354 398.765C933.204 305.661 974.901 218.043 1050.01 158.03C1087.43 128.196 1131 109.164 1176.71 98.0189C1220.94 87.3886 1268.13 83.7885 1314.1 85.1602C1408.31 87.9036 1499.32 107.621 1582.19 112.079" stroke="var(--stroke-0, #008080)" stroke-width="1.42913" stroke-miterlimit="10"/>
<path id="Vector_36" d="M-368.908 658.016C-334.428 523.931 -228.446 431.856 -118.055 423.284C-110.838 422.769 -103.621 422.425 -96.2707 422.597C7.43855 424.655 103.797 491.182 193.34 557.882C196.414 560.111 199.487 562.511 202.695 564.741C295.045 633.667 390.601 703.967 494.979 708.769C636.109 714.598 767.215 589.601 852.615 447.288C863.574 428.942 874.131 410.423 884.423 392.248C935.609 301.716 979.579 218.9 1055.09 162.832C1092.78 134.883 1136.21 117.223 1181.65 107.106C1225.62 97.3322 1272.4 94.2471 1318.1 95.4471C1411.79 97.8472 1502.26 115.164 1583.92 115.164" stroke="var(--stroke-0, #008080)" stroke-width="1.42913" stroke-miterlimit="10"/>
<path id="Vector_37" d="M-361.825 655.786C-326.275 523.761 -220.294 434.942 -110.705 427.57C-103.488 427.055 -96.4044 426.884 -89.1875 427.227C13.5862 429.97 109.143 495.469 198.419 560.282C201.492 562.511 204.566 564.741 207.64 566.969C299.722 633.839 395.279 701.567 498.72 703.454C638.514 706.026 766.146 578.629 852.749 439.401C863.975 421.397 874.533 403.393 885.224 385.733C937.748 297.944 983.855 219.757 1059.9 167.461C1097.72 141.398 1141.02 125.281 1186.2 116.023C1229.9 107.106 1276.4 104.362 1321.85 105.392C1415 107.449 1505.07 122.194 1585.26 117.738" stroke="var(--stroke-0, #008080)" stroke-width="1.42913" stroke-miterlimit="10"/>
<path id="Vector_38" d="M-354.608 653.729C-317.989 523.59 -212.008 438.029 -103.353 432.029C-96.2701 431.686 -89.0532 431.514 -81.97 431.857C19.8681 435.457 114.623 499.756 203.631 562.854C206.705 565.084 209.779 567.141 212.853 569.371C304.668 634.354 400.358 699.167 502.73 698.311C641.321 697.109 765.479 567.827 853.15 431.514C864.51 414.025 875.335 396.365 886.16 379.218C940.02 294.172 988.4 220.787 1064.85 172.262C1102.93 148.087 1146.1 133.34 1191.01 125.11C1234.44 117.051 1280.69 114.823 1325.73 115.679C1418.34 117.394 1507.88 129.568 1586.86 120.824" stroke="var(--stroke-0, #008080)" stroke-width="1.42913" stroke-miterlimit="10"/>
<path id="Vector_39" d="M-347.391 651.673C-309.703 523.418 -203.721 441.287 -96.0029 436.486C-88.9198 436.144 -81.8365 436.144 -74.7533 436.486C26.1494 440.944 120.102 504.214 208.844 565.256C211.917 567.312 214.991 569.541 218.065 571.599C309.746 634.697 405.436 696.596 506.606 692.994C643.994 688.194 764.542 556.854 853.417 423.627C864.91 406.48 876.004 389.334 887.096 372.702C942.291 290.229 992.944 221.644 1069.79 176.892C1108.15 154.602 1151.18 141.4 1195.82 134.026C1239.12 126.996 1284.82 124.94 1329.72 125.625C1421.81 126.996 1510.95 136.598 1588.47 123.396" stroke="var(--stroke-0, #008080)" stroke-width="1.42913" stroke-miterlimit="10"/>
<path id="Vector_40" d="M-340.308 649.614C-301.55 523.246 -195.435 444.374 -88.6525 440.772C-81.7029 440.601 -74.6197 440.601 -67.6702 440.944C32.297 446.259 125.581 508.329 213.921 567.484C216.995 569.541 220.069 571.599 223.144 573.656C314.557 634.697 410.247 693.68 510.481 687.509C646.534 679.107 763.607 545.708 853.684 415.568C865.311 398.765 876.671 382.133 888.031 366.016C944.564 286.285 997.488 222.33 1074.74 181.521C1113.23 161.117 1156.26 149.287 1200.49 142.942C1243.53 136.77 1288.97 135.226 1333.47 135.741C1425.02 136.77 1513.62 143.8 1589.94 126.311" stroke="var(--stroke-0, #008080)" stroke-width="1.42913" stroke-miterlimit="10"/>
<path id="Vector_41" d="M-333.091 647.558C-293.264 523.074 -187.15 447.459 -81.3022 445.231C-74.3525 445.059 -67.4029 445.231 -60.4534 445.574C38.5782 451.746 131.061 512.616 219.134 570.056C222.207 572.114 225.281 573.999 228.355 576.057C319.501 635.212 415.326 691.28 514.491 682.363C649.34 670.362 762.939 534.735 854.219 407.852C865.98 391.391 877.474 375.274 889.234 359.842C947.102 282.855 1002.3 223.53 1080.08 186.494C1118.84 167.976 1161.74 157.689 1205.71 152.03C1248.47 146.715 1293.51 145.515 1337.75 145.857C1428.76 146.543 1516.96 151.002 1591.95 129.055" stroke="var(--stroke-0, #008080)" stroke-width="1.42913" stroke-miterlimit="10"/>
<path id="Vector_42" d="M-325.874 645.499C-284.979 522.903 -178.864 450.718 -73.9517 449.518C-67.1358 449.518 -60.1862 449.689 -53.3702 450.203C44.7258 457.233 136.407 516.903 224.212 572.456C227.286 574.342 230.36 576.229 233.3 578.286C324.179 635.382 420.138 688.709 518.233 677.048C651.879 661.275 761.87 523.761 854.353 399.793C866.246 383.848 878.008 368.072 889.903 353.155C949.108 278.74 1006.58 224.387 1084.76 191.123C1123.78 174.491 1166.42 165.576 1210.25 160.945C1252.75 156.489 1297.52 155.63 1341.49 155.802C1431.98 156.145 1519.64 158.202 1593.28 131.798" stroke="var(--stroke-0, #008080)" stroke-width="1.42913" stroke-miterlimit="10"/>
<path id="Vector_43" d="M-318.791 643.442C-276.826 522.733 -170.711 453.804 -66.6012 453.976C-59.7852 453.976 -52.9694 454.318 -46.1534 454.833C51.0071 462.72 141.886 521.189 229.424 575.027C232.499 576.914 235.439 578.801 238.513 580.514C329.258 635.726 425.081 685.965 522.243 671.733C654.551 652.358 761.068 512.788 854.754 391.906C866.781 376.302 878.81 361.042 890.971 346.64C951.513 274.968 1011.25 225.244 1089.84 195.753C1129 181.008 1171.63 173.462 1215.06 169.862C1257.3 166.432 1301.8 165.919 1345.36 165.919C1435.31 165.919 1522.45 165.404 1594.89 134.711" stroke="var(--stroke-0, #008080)" stroke-width="1.42913" stroke-miterlimit="10"/>
<path id="Vector_44" d="M-311.574 641.384C-268.406 522.561 -162.291 456.89 -59.2508 458.261C-52.5685 458.433 -45.7525 458.776 -39.0703 459.291C57.1548 468.035 147.233 525.305 234.503 577.258C237.576 578.971 240.516 580.858 243.591 582.573C334.069 635.726 430.026 683.22 525.984 666.246C657.091 643.099 760.131 501.642 854.886 383.848C867.049 368.587 879.344 353.842 891.772 339.953C953.651 270.853 1015.66 225.93 1094.65 200.381C1134.07 187.523 1176.57 181.521 1219.74 178.778C1261.7 176.206 1305.81 176.034 1349.11 175.862C1438.65 175.521 1525.25 172.434 1596.23 137.283" stroke="var(--stroke-0, #008080)" stroke-width="1.42913" stroke-miterlimit="10"/>
<path id="Vector_45" d="M-304.356 639.326C-260.12 522.389 -154.005 460.148 -51.8998 462.72C-45.2174 462.891 -38.5352 463.235 -31.8529 463.92C63.5702 473.522 152.712 529.761 239.715 579.658C242.789 581.373 245.73 583.086 248.804 584.801C339.014 636.069 435.106 680.648 529.994 660.931C659.897 634.182 759.33 490.669 855.289 375.959C867.717 361.214 880.012 346.812 892.842 333.436C956.057 267.081 1020.34 226.959 1099.73 205.012C1139.28 194.038 1181.78 189.408 1224.68 187.694C1266.39 185.979 1310.21 186.323 1353.25 185.979C1442.26 185.123 1528.32 179.636 1598.09 140.198" stroke="var(--stroke-0, #008080)" stroke-width="1.42913" stroke-miterlimit="10"/>
<path id="Vector_46" d="M-297.274 637.269C-251.968 522.218 -145.853 463.235 -44.5493 467.178C-37.867 467.35 -31.3184 467.863 -24.636 468.721C69.8515 479.008 158.191 534.22 244.927 582.401C248.001 584.116 250.941 585.659 254.015 587.373C343.959 636.584 440.05 678.248 534.004 655.958C662.571 625.439 758.529 480.038 855.689 368.244C868.251 353.842 880.815 339.953 893.777 327.265C958.329 263.651 1024.89 228.159 1104.67 209.985C1144.5 200.896 1186.73 197.81 1229.36 196.953C1270.79 196.096 1314.22 196.781 1357 196.268C1445.46 195.066 1531.14 187.008 1599.42 143.113" stroke="var(--stroke-0, #008080)" stroke-width="1.42913" stroke-miterlimit="10"/>
<path id="Vector_47" d="M-290.056 635.212C-243.681 522.046 -137.566 466.493 -37.1989 471.465C-30.6502 471.808 -24.1015 472.322 -17.5529 473.18C75.9991 484.325 163.537 538.335 250.006 584.629C252.946 586.173 256.02 587.888 258.96 589.431C348.636 636.754 444.861 675.162 537.745 650.643C665.11 616.179 757.593 469.065 855.823 360.357C868.519 346.297 881.349 332.923 894.58 320.749C960.467 259.708 1029.3 229.017 1109.62 214.785C1149.71 207.583 1191.81 205.87 1234.17 206.04C1275.34 206.04 1318.5 207.242 1361 206.555C1448.94 205.012 1534.08 194.381 1601.16 146.2" stroke="var(--stroke-0, #008080)" stroke-width="1.42913" stroke-miterlimit="10"/>
<path id="Vector_48" d="M-282.974 633.154C-235.529 521.874 -129.415 469.578 -29.9821 475.923C-23.4335 476.265 -17.0184 476.952 -10.4698 477.808C82.1468 489.81 169.016 542.622 255.085 587.031C258.025 588.573 261.099 590.116 264.039 591.659C353.581 637.097 449.672 672.59 541.488 645.328C667.515 607.263 756.524 458.091 855.956 352.47C868.786 338.923 881.884 325.893 895.381 314.233C962.605 255.936 1033.71 230.045 1114.43 219.415C1154.66 214.098 1196.75 213.928 1238.85 214.785C1279.75 215.813 1322.65 217.185 1364.75 216.328C1452.15 214.442 1536.89 201.411 1602.5 148.6" stroke="var(--stroke-0, #008080)" stroke-width="1.42913" stroke-miterlimit="10"/>
<path id="Vector_49" d="M-275.756 631.096C-227.244 521.703 -120.995 472.837 -22.498 480.38C-16.083 480.895 -9.66799 481.58 -3.25299 482.438C88.428 495.297 174.496 546.908 260.296 589.603C263.236 591.146 266.311 592.518 269.251 594.06C358.526 637.441 454.751 670.19 545.496 640.184C670.323 598.518 755.855 447.288 856.357 344.582C869.32 331.38 882.551 318.863 896.451 307.717C965.011 252.164 1038.38 230.902 1119.51 224.215C1160 220.957 1201.97 221.987 1243.66 223.872C1284.29 225.759 1326.79 227.645 1368.62 226.444C1455.49 224.215 1539.69 208.612 1604.1 151.515" stroke="var(--stroke-0, #008080)" stroke-width="1.42913" stroke-miterlimit="10"/>
<path id="Vector_50" d="M-268.54 628.867C-218.958 521.359 -112.709 475.752 -15.1475 484.495C-8.73252 485.01 -2.45119 485.867 3.96381 486.724C94.7094 500.441 179.975 550.852 265.509 591.66C268.449 593.031 271.389 594.403 274.463 595.946C363.471 637.441 459.696 667.103 549.506 634.526C672.995 589.088 755.054 435.972 856.758 336.351C869.855 323.493 883.354 311.661 897.386 300.859C967.416 247.878 1042.93 231.417 1124.45 228.502C1165.21 227.13 1206.91 229.702 1248.47 232.446C1288.84 235.189 1331.06 237.417 1372.63 236.217C1458.96 233.646 1542.76 215.47 1605.71 153.915" stroke="var(--stroke-0, #008080)" stroke-width="1.42913" stroke-miterlimit="10"/>
<path id="Vector_51" d="M-261.458 626.81C-210.805 521.189 -104.557 478.837 -7.93079 488.954C-1.64943 489.64 4.63192 490.497 11.0469 491.525C100.857 506.101 185.321 555.482 270.587 594.403C273.527 595.775 276.467 597.146 279.541 598.346C368.282 637.784 464.641 664.703 553.381 629.382C675.667 580.343 754.117 425.17 857.159 328.636C870.39 316.119 884.155 304.802 898.455 294.687C969.822 244.448 1047.6 232.789 1129.53 233.646C1170.42 234.161 1212.12 238.104 1253.41 241.876C1293.51 245.478 1335.34 248.049 1376.64 246.678C1462.44 243.762 1545.7 223.015 1607.45 157.174" stroke="var(--stroke-0, #008080)" stroke-width="1.42913" stroke-miterlimit="10"/>
<path id="Vector_52" d="M-254.24 624.752C-202.519 521.018 -96.2701 482.095 -0.446086 493.24C5.83526 493.925 12.1166 494.955 18.2644 495.984C107.139 511.416 190.801 559.595 275.934 596.631C278.874 597.833 281.814 599.205 284.754 600.405C373.361 637.954 469.72 661.96 557.258 623.895C678.341 571.256 753.316 414.025 857.426 320.578C870.791 308.574 884.824 297.601 899.391 287.999C972.095 240.504 1052.15 233.474 1134.47 238.104C1175.64 240.504 1217.2 245.991 1258.1 250.621C1297.93 255.249 1339.49 258.165 1380.51 256.621C1465.79 253.364 1548.64 230.045 1608.91 159.745" stroke="var(--stroke-0, #008080)" stroke-width="1.42913" stroke-miterlimit="10"/>
<path id="Vector_53" d="M-247.023 622.694C-194.233 520.846 -87.8506 485.182 6.90431 497.699C101.659 510.214 190.4 561.482 281.012 599.033C371.757 636.754 471.725 660.76 561.134 618.579C696.384 555.139 770.022 360.529 900.326 281.483C1011.25 214.27 1140.89 242.733 1262.91 259.536C1384.92 276.34 1523.11 272.91 1610.52 162.489" stroke="var(--stroke-0, #008080)" stroke-width="1.42913" stroke-miterlimit="10"/>
</g>
<defs>
<clipPath id="clip0_0_4">
<rect width="1280" height="832" fill="white"/>
</clipPath>
</defs>
</svg>
